<?xml version="1.0" encoding="utf-8"?>
<!-- Generator: Adobe Illustrator 16.0.4, SVG Export Plug-In . SVG Version: 6.00 Build 0)  -->
<!DOCTYPE svg PUBLIC "-//W3C//DTD SVG 1.1//EN" "http://www.w3.org/Graphics/SVG/1.1/DTD/svg11.dtd">
<svg version="1.1" id="Layer_1" xmlns="http://www.w3.org/2000/svg" xmlns:xlink="http://www.w3.org/1999/xlink" x="0px" y="0px"
	 width="61.333px" height="59.333px" viewBox="0 0 61.333 59.333" enable-background="new 0 0 61.333 59.333" xml:space="preserve">
<g>
	<path fill="none" d="M6.508,9.481c-1.11,0-2.013,0.904-2.013,2.013c0,1.108,0.903,2.012,2.013,2.012
		c1.108,0,2.011-0.903,2.011-2.012C8.52,10.385,7.616,9.481,6.508,9.481z"/>
	<path fill="none" d="M6.508,37.067c-1.11,0-2.013,0.904-2.013,2.014c0,1.108,0.903,2.011,2.013,2.011
		c1.108,0,2.011-0.903,2.011-2.011C8.52,37.971,7.616,37.067,6.508,37.067z"/>
	<path fill="#FFFFFF" d="M57.147,1.011H3.673c-1.033,0-1.874,0.84-1.874,1.874v53.475c0,0.994,0.78,1.812,1.76,1.87l3.471-5.916
		l5.835,5.836l5.796-5.796l5.794,5.796l5.794-5.796l5.794,5.796l5.794-5.796l5.794,5.796l5.829-5.83l3.794,5.91
		c0.983-0.057,1.766-0.874,1.766-1.87V2.885C59.021,1.851,58.181,1.011,57.147,1.011z M6.508,41.092
		c-1.11,0-2.013-0.903-2.013-2.011c0-1.11,0.903-2.014,2.013-2.014c1.108,0,2.011,0.904,2.011,2.014
		C8.52,40.188,7.616,41.092,6.508,41.092z M6.508,13.506c-1.11,0-2.013-0.903-2.013-2.012c0-1.109,0.903-2.013,2.013-2.013
		c1.108,0,2.011,0.904,2.011,2.013C8.52,12.603,7.616,13.506,6.508,13.506z M50.38,9.147L50.05,9.49v1.06l-7.218,7.218l-0.276-0.275
		l6.971-6.971L49.4,10.164l-7.764,8.058l-0.166-0.166L20.603,39.095l-3.138,2.637c0,0-2.187,1.583-3.128,1.372h0.001l-0.75,0.362
		l0.362-0.749h0.001c-0.198-0.928,1.451-3.046,1.451-3.046l2.676-3.18l21-20.826l-0.166-0.166l9.075-8.745
		c0,0,0.742-0.577,1.857,0.538C50.957,8.404,50.38,9.147,50.38,9.147z"/>
	<path fill="#00AEEF" d="M47.988,6.753l-9.075,8.745l0.166,0.166l-21,20.826l-2.676,3.18c0,0-1.649,2.119-1.451,3.046H13.95
		l-0.362,0.749l0.75-0.362h-0.001c0.941,0.211,3.128-1.372,3.128-1.372l3.138-2.637l20.868-21.039l0.166,0.166l7.764-8.058
		l0.127,0.357l-6.971,6.971l0.276,0.275l7.218-7.218V9.49l0.33-0.343c0,0,0.577-0.743-0.535-1.855
		C48.73,6.177,47.988,6.753,47.988,6.753z"/>
</g>
</svg>
